HIERARCHY
ROOT SpineBase
{
  OFFSET 0.000000 0.000000 0.000000
  CHANNELS 6 Xposition Yposition Zposition Zrotation Xrotation Yrotation
  JOINT SpineMid
  {
    OFFSET 0.000000 31.772936 0.000000
    CHANNELS 3 Zrotation Xrotation Yrotation
    JOINT SpineShoulder
    {
      OFFSET 0.002695 23.473868 -0.742067
      CHANNELS 3 Zrotation Xrotation Yrotation
      JOINT Neck
      {
        OFFSET 0.067051 7.752986 -0.490943
        CHANNELS 3 Zrotation Xrotation Yrotation
        JOINT Head
        {
          OFFSET 2.294268 11.683404 3.480161
          CHANNELS 3 Zrotation Xrotation Yrotation
          End Site
          {
            OFFSET 0 0 0
          }
        }
      }
      JOINT ShoulderLeft
      {
        OFFSET -0.621546 -5.572784 -13.835384
        CHANNELS 3 Zrotation Xrotation Yrotation
        JOINT ElbowLeft
        {
          OFFSET 2.475638 -23.603760 -7.024262
          CHANNELS 3 Zrotation Xrotation Yrotation
          JOINT WristLeft
          {
            OFFSET 17.163944 -6.854525 11.795328
            CHANNELS 3 Zrotation Xrotation Yrotation
            JOINT HandLeft
            {
              OFFSET 6.157085 -1.663989 5.905909
              CHANNELS 3 Zrotation Xrotation Yrotation
              JOINT HandTipLeft
              {
                OFFSET 4.982859 -0.599808 4.408318
                CHANNELS 3 Zrotation Xrotation Yrotation
                End Site
                {
                  OFFSET 0 0 0
                }
              }
              JOINT ThumbLeft
              {
                OFFSET 1.834885 3.484802 1.079584
                CHANNELS 3 Zrotation Xrotation Yrotation
                End Site
                {
                  OFFSET 0 0 0
                }
              }
            }
          }
        }
      }
      JOINT ShoulderRight
      {
        OFFSET 4.363751 -1.479713 16.558660
        CHANNELS 3 Zrotation Xrotation Yrotation
        JOINT ElbowRight
        {
          OFFSET 3.486049 -21.505347 10.485287
          CHANNELS 3 Zrotation Xrotation Yrotation
          JOINT WristRight
          {
            OFFSET -3.560605 -23.847035 -2.997357
            CHANNELS 3 Zrotation Xrotation Yrotation
            JOINT HandRight
            {
              OFFSET 5.785791 -11.306135 -4.303548
              CHANNELS 3 Zrotation Xrotation Yrotation
              JOINT HandTipRight
              {
                OFFSET 0.824324 -2.520541 -4.066340
                CHANNELS 3 Zrotation Xrotation Yrotation
                End Site
                {
                  OFFSET 0 0 0
                }
              }
              JOINT ThumbRight
              {
                OFFSET 0.432027 -1.752569 -5.090352
                CHANNELS 3 Zrotation Xrotation Yrotation
                End Site
                {
                  OFFSET 0 0 0
                }
              }
            }
          }
        }
      }
    }
  }
  JOINT HipLeft
  {
    OFFSET -0.276649 0.634109 -5.681490
    CHANNELS 3 Zrotation Xrotation Yrotation
    JOINT KneeLeft
    {
      OFFSET 0.026321 -38.108401 -2.724259
      CHANNELS 3 Zrotation Xrotation Yrotation
      JOINT AnkleLeft
      {
        OFFSET -10.671346 -32.688595 1.218383
        CHANNELS 3 Zrotation Xrotation Yrotation
        JOINT FootLeft
        {
          OFFSET 10.327805 -3.864265 -3.821003
          CHANNELS 3 Zrotation Xrotation Yrotation
          End Site
          {
            OFFSET 0 0 0
          }
        }
      }
    }
  }
  JOINT HipRight
  {
    OFFSET 1.752369 0.927484 -0.089514
    CHANNELS 3 Zrotation Xrotation Yrotation
    JOINT KneeRight
    {
      OFFSET -1.848446 -31.365768 -9.816328
      CHANNELS 3 Zrotation Xrotation Yrotation
      JOINT AnkleRight
      {
        OFFSET -7.194435 -33.045821 2.422049
        CHANNELS 3 Zrotation Xrotation Yrotation
        JOINT FootRight
        {
          OFFSET 10.300478 -3.916202 -3.857910
          CHANNELS 3 Zrotation Xrotation Yrotation
          End Site
          {
            OFFSET 0 0 0
          }
        }
      }
    }
  }
}
MOTION
Frames: 14
Frame Time: 0.033333
-64.287946 78.983646 237.418580 -0.000000 0.000000 -70.056969 -0.000000 0.000000 70.056969 -0.000000 0.000000 0.000000 -0.000000 0.000000 0.000000 0.000000 0.000000 0.000000 -0.000000 0.000000 0.000000 -0.000000 0.000000 0.000000 -0.000000 0.000000 0.000000 -0.000000 0.000000 0.000000 0.000000 0.000000 0.000000 0.000000 0.000000 0.000000 -0.000000 0.000000 0.000000 -0.000000 0.000000 0.000000 -0.000000 0.000000 0.000000 -0.000000 0.000000 0.000000 0.000000 0.000000 0.000000 0.000000 0.000000 0.000000 -0.000000 0.000000 70.056969 -0.000000 0.000000 0.000000 -0.000000 0.000000 0.000000 0.000000 0.000000 0.000000 -0.000000 0.000000 70.056969 -0.000000 0.000000 0.000000 -0.000000 0.000000 0.000000 0.000000 0.000000 0.000000
-64.181981 78.606467 237.315738 0.393940 -0.068923 -69.681371 -0.201427 -0.345495 69.681001 -0.000000 0.000000 0.000000 1.434676 -0.657102 -0.291322 0.000000 0.000000 0.000000 1.960193 -1.354892 -0.703529 -12.071802 7.007404 -2.086207 0.926993 1.536480 -5.648184 0.449313 0.232247 7.053518 0.000000 0.000000 0.000000 0.000000 0.000000 0.000000 -0.126324 -1.007752 -0.225139 0.122383 1.008238 0.222952 -7.572678 2.055807 4.186246 7.447732 -0.765254 -3.167617 0.000000 0.000000 0.000000 0.000000 0.000000 0.000000 0.134456 0.470167 69.617592 -0.881574 0.030776 0.063280 -0.000000 0.000000 0.000000 0.000000 0.000000 0.000000 -0.201427 -0.345495 69.681001 1.221777 0.159597 0.053233 -1.221929 -0.158425 -0.056624 0.000000 0.000000 0.000000
-64.027739 78.323893 237.045483 0.705498 -0.211456 -69.369542 -0.446476 -0.585751 69.368562 -0.000000 0.000000 0.000000 2.658255 -1.309874 -0.508383 0.000000 0.000000 0.000000 3.794038 -2.777846 -1.333797 -23.183579 13.521646 -2.406283 3.046874 2.895798 -9.780409 -0.218085 -0.080344 12.041555 0.000000 0.000000 0.000000 0.000000 0.000000 0.000000 -0.000000 0.000000 0.000000 -0.000000 0.000000 0.000000 -13.590133 2.679873 7.257025 12.806512 -2.210976 -4.872182 0.000000 0.000000 0.000000 0.000000 0.000000 0.000000 0.241505 0.754998 69.260382 -0.941561 1.188336 -0.209587 -0.368619 -1.272996 -0.541630 0.000000 0.000000 0.000000 -0.570230 0.374910 69.074067 1.261084 -0.181989 0.400304 -1.896289 -0.510692 -0.968319 0.000000 0.000000 0.000000
-63.825220 78.135922 236.607817 0.938437 -0.427326 -69.136791 -0.045727 -0.293936 69.162287 0.129906 -0.304198 0.037061 2.881300 -1.163192 -0.753778 0.000000 0.000000 0.000000 4.716508 -3.478266 -2.019175 -32.915417 18.866087 -1.236565 5.303089 4.146592 -12.901140 -1.064564 -0.734510 15.146567 0.000000 0.000000 0.000000 0.000000 0.000000 0.000000 -0.817945 3.093710 0.305945 0.245241 -1.253208 -0.530612 -18.737841 1.228114 9.184474 16.555556 -4.249194 -5.619378 0.000000 0.000000 0.000000 0.000000 0.000000 0.000000 0.315130 0.849924 69.002288 -0.943301 1.662983 -0.251666 -0.653353 -1.617278 -0.845745 0.000000 0.000000 0.000000 -0.528265 0.356728 68.785756 1.619396 0.137267 0.479214 -2.411667 -0.677678 -1.372283 0.000000 0.000000 0.000000
-63.574426 78.042554 236.002738 1.095306 -0.717342 -68.995949 -0.057875 -0.358732 69.029030 0.135519 -0.362349 0.043734 3.555529 -1.433036 -0.871187 0.000000 0.000000 0.000000 6.193306 -4.669811 -2.580691 -41.114581 22.847236 0.956028 7.035354 5.482775 -15.631587 -1.476873 -1.540974 16.896366 0.000000 0.000000 0.000000 0.000000 0.000000 0.000000 -0.745789 8.196834 1.171523 0.303387 -4.501113 -1.642301 -23.351351 -1.526143 9.957224 19.095372 -6.926914 -5.721570 0.000000 0.000000 0.000000 0.000000 0.000000 0.000000 0.350390 0.752092 68.857791 -0.631475 2.050894 -0.251156 -1.005569 -1.757295 -1.173710 0.000000 0.000000 0.000000 -0.274841 0.188628 68.655189 1.821782 0.729083 0.469134 -2.658018 -0.787877 -1.721484 0.000000 0.000000 0.000000
-63.275355 78.043791 235.230248 1.177509 -1.083395 -68.956553 -0.067950 -0.408178 68.996662 0.122583 -0.400061 0.047496 4.071573 -1.633208 -0.923196 0.000000 0.000000 0.000000 7.620530 -5.869007 -3.095572 -47.757591 25.581717 3.756407 7.978026 7.082303 -18.464898 -1.143011 -2.407100 17.800679 0.000000 0.000000 0.000000 0.000000 0.000000 0.000000 -0.614046 16.050732 2.547712 0.256779 -9.872854 -3.325056 -27.922767 -5.753698 9.408131 20.786457 -10.278215 -5.373802 0.000000 0.000000 0.000000 0.000000 0.000000 0.000000 0.343888 0.459956 68.838034 -0.005805 2.349125 -0.210298 -1.423984 -1.688391 -1.524720 0.000000 0.000000 0.000000 0.179687 -0.126498 68.694138 1.872324 1.583653 0.374101 -2.637530 -0.840663 -2.015409 0.000000 0.000000 0.000000
-62.806239 78.115621 234.220040 1.275062 -1.701234 -67.548347 -0.102607 -0.429866 67.600833 0.065558 -0.395689 0.051310 4.454804 -1.772083 -0.920010 0.000000 0.000000 0.000000 9.334806 -7.648488 -3.720018 -52.549358 27.116030 8.129253 7.929564 9.234211 -24.212392 2.637825 -3.932476 19.524765 0.000000 0.000000 0.000000 0.000000 0.000000 0.000000 -0.844411 31.484314 5.500365 -0.258737 -21.061241 -6.626109 -35.736420 -15.297620 4.772270 23.273361 -14.534457 -4.345175 0.000000 0.000000 0.000000 0.000000 0.000000 0.000000 -0.186938 -0.622478 67.530427 2.188555 2.305679 -0.116083 -2.507333 -1.238696 -2.098348 0.000000 0.000000 0.000000 1.132475 -1.420050 67.683561 3.222918 2.812109 0.116292 -0.677052 0.973213 -1.850472 0.000000 0.000000 0.000000
-62.344756 78.318801 233.014668 1.222751 -2.317446 -66.997202 -0.134789 -0.420438 67.055749 -0.007275 -0.351630 0.049961 4.720851 -1.976104 -0.826487 0.000000 0.000000 0.000000 10.766093 -9.200370 -4.192192 -56.408322 28.170648 12.134353 7.797939 11.530631 -29.163702 3.958396 -4.427917 19.975375 0.000000 0.000000 0.000000 0.000000 0.000000 0.000000 -2.356882 48.183278 9.682060 -1.351213 -33.488935 -10.331559 -44.970024 -25.599240 -3.780412 25.839731 -16.766890 -2.556268 0.000000 0.000000 0.000000 0.000000 0.000000 0.000000 -0.482512 -1.427216 67.065936 3.698158 2.298288 0.004778 -3.128811 -0.664405 -2.586474 0.000000 0.000000 0.000000 2.281600 -2.473650 67.507777 3.196591 4.824899 -0.315747 0.143420 0.880707 -2.359609 0.000000 0.000000 0.000000
-61.986493 78.608711 231.705102 0.992510 -2.800159 -68.077627 -0.142719 -0.378272 68.130248 -0.088430 -0.297027 0.042954 4.773919 -2.109319 -0.654242 0.000000 0.000000 0.000000 11.820968 -10.291612 -4.478515 -57.109730 28.292738 14.963342 5.634819 15.587472 -33.816202 6.562363 -5.233596 20.105845 0.000000 0.000000 0.000000 0.000000 0.000000 0.000000 -5.915475 61.911067 15.502456 -2.743688 -43.566036 -13.747863 -55.397303 -35.484711 -17.127832 27.962403 -15.554659 1.632616 0.000000 0.000000 0.000000 0.000000 0.000000 0.000000 -0.276605 -1.998906 68.216181 4.642406 2.393990 0.151945 -3.431514 0.022598 -3.002234 0.000000 0.000000 0.000000 3.719798 -1.143197 68.146023 -2.468246 6.336727 0.215579 -3.036024 -2.519709 -3.948585 0.000000 0.000000 0.000000
-61.661800 78.984460 230.515527 0.722351 -3.328135 -69.421444 -0.055036 -0.459537 69.464940 -0.122101 -0.360004 0.037398 4.310121 -1.387327 -0.452011 0.000000 0.000000 0.000000 12.706456 -10.608554 -4.769418 -55.905720 27.995066 15.567311 0.669079 23.604351 -37.860261 13.596733 -7.298849 22.202275 0.000000 0.000000 0.000000 0.000000 0.000000 0.000000 -12.522656 71.374955 23.591248 -3.709756 -50.056464 -16.089313 -73.276091 -42.652230 -37.024739 33.805729 -10.671125 2.219882 0.000000 0.000000 0.000000 0.000000 0.000000 0.000000 -0.258829 -2.407146 69.622712 5.406582 2.360891 0.275692 -3.606368 0.678921 -3.196790 0.000000 0.000000 0.000000 3.899622 -0.922540 69.532111 -5.187996 7.553693 0.198730 -6.908663 -5.763886 -5.590612 0.000000 0.000000 0.000000
-61.401627 79.371259 229.327468 0.386356 -3.766775 -72.011682 -0.038818 -0.512261 72.037888 -0.151838 -0.381946 0.027476 3.840978 -1.009669 -0.163613 0.000000 0.000000 0.000000 13.357151 -10.609390 -4.935545 -55.078222 27.786284 16.394236 -2.315362 30.812599 -42.579689 19.434681 -8.616111 25.177255 0.000000 0.000000 0.000000 0.000000 0.000000 0.000000 -20.534066 76.286823 32.452294 -4.172923 -53.450502 -17.289299 -88.735397 -44.533349 -54.828746 38.376214 -5.313617 1.280273 0.000000 0.000000 0.000000 0.000000 0.000000 0.000000 0.183497 -2.787181 72.273066 6.044696 2.721806 0.319705 -3.738133 1.213727 -3.188716 0.000000 0.000000 0.000000 3.294392 -1.644239 72.600773 -4.985805 8.382025 -0.380141 -10.740657 -8.252700 -6.959274 0.000000 0.000000 0.000000
-61.242066 79.712799 228.298593 0.003998 -4.088117 -74.517815 -0.047845 -0.562106 74.520593 -0.172145 -0.382173 0.014582 3.467805 -0.714575 0.107889 0.000000 0.000000 0.000000 13.718952 -10.293844 -4.976861 -53.686260 27.473540 16.528264 -4.911664 38.948185 -47.710239 27.321066 -9.437268 29.426075 0.000000 0.000000 0.000000 0.000000 0.000000 0.000000 -21.771581 76.968619 34.152431 -4.172945 -53.861866 -17.346771 -93.164992 -44.482231 -60.232282 39.723415 -3.183579 0.786671 0.000000 0.000000 0.000000 0.000000 0.000000 0.000000 0.790143 -2.885964 74.810410 6.486715 3.147305 0.343069 -3.922427 1.668955 -3.025960 0.000000 0.000000 0.000000 2.241223 -3.099477 75.852286 -2.663840 8.622542 -1.339081 -13.529807 -9.683257 -7.627602 0.000000 0.000000 0.000000
-61.143626 79.943822 227.464442 -0.403309 -4.468912 -76.663588 -0.007373 -0.605323 76.639530 -0.182233 -0.404533 0.002914 3.456558 -0.665292 0.334114 0.000000 0.000000 0.000000 14.298508 -9.779221 -5.110227 -53.623786 27.328172 15.998405 -5.241240 41.938622 -50.549104 30.866677 -8.962467 31.430815 0.000000 0.000000 0.000000 0.000000 0.000000 0.000000 -12.565282 72.232890 24.488797 -2.943589 -50.203062 -15.318244 -82.677372 -42.947441 -45.257340 38.008642 -9.213671 -5.382885 0.000000 0.000000 0.000000 0.000000 0.000000 0.000000 1.340705 -2.822835 76.969152 6.840362 3.709927 0.317251 -4.117877 1.977269 -2.787931 0.000000 0.000000 0.000000 0.794521 -5.224776 78.944721 1.806238 8.310249 -2.600463 -15.210872 -10.107086 -7.417765 0.000000 0.000000 0.000000
-61.115117 80.042789 226.938558 -0.776474 -4.826977 -78.299299 0.004441 -0.622429 78.248213 -0.172712 -0.400932 -0.006940 3.524340 -0.432377 0.454472 0.000000 0.000000 0.000000 14.709082 -9.157519 -5.201864 -53.729967 27.225279 14.731371 -5.886049 42.765943 -50.530296 32.283938 -8.815424 32.865800 0.000000 0.000000 0.000000 0.000000 0.000000 0.000000 -12.495962 72.717034 24.907130 -3.024521 -50.269434 -15.422676 -84.659149 -44.337295 -50.493061 37.639339 -5.039917 2.318486 0.000000 0.000000 0.000000 0.000000 0.000000 0.000000 1.658413 -2.624326 78.595895 7.098634 4.148816 0.279333 -4.322973 2.173346 -2.490743 0.000000 0.000000 0.000000 -0.853394 -7.750842 81.573446 7.271916 7.548981 -3.905611 -14.992933 -9.673556 -6.282690 0.000000 0.000000 0.000000
